solid gate-box
  facet normal 0 1 0
    outer loop
      vertex 0.1 0.05 -0.3
      vertex 0.4 0.05 -0.2
      vertex 0.4 0.05 -0.3
    endloop
  endfacet
  facet normal 0 1 0
    outer loop
      vertex 0.1 0.05 -0.3
      vertex 0.1 0.05 -0.2
      vertex 0.4 0.05 -0.2
    endloop
  endfacet
  facet normal 0 -1 0
    outer loop
      vertex 0.1 0.25 -0.3
      vertex 0.4 0.25 -0.3
      vertex 0.4 0.25 -0.2
    endloop
  endfacet
  facet normal 0 -1 0
    outer loop
      vertex 0.1 0.25 -0.3
      vertex 0.4 0.25 -0.2
      vertex 0.1 0.25 -0.2
    endloop
  endfacet
  facet normal 0 0 1
    outer loop
      vertex 0.1 0.05 -0.3
      vertex 0.4 0.05 -0.3
      vertex 0.4 0.25 -0.3
    endloop
  endfacet
  facet normal 0 0 1
    outer loop
      vertex 0.1 0.05 -0.3
      vertex 0.4 0.25 -0.3
      vertex 0.1 0.25 -0.3
    endloop
  endfacet
  facet normal 0 0 -1
    outer loop
      vertex 0.4 0.05 -0.2
      vertex 0.1 0.05 -0.2
      vertex 0.1 0.25 -0.2
    endloop
  endfacet
  facet normal 0 0 -1
    outer loop
      vertex 0.4 0.05 -0.2
      vertex 0.1 0.25 -0.2
      vertex 0.4 0.25 -0.2
    endloop
  endfacet
  facet normal 1 0 0
    outer loop
      vertex 0.1 0.05 -0.2
      vertex 0.1 0.05 -0.3
      vertex 0.1 0.25 -0.3
    endloop
  endfacet
  facet normal 1 0 0
    outer loop
      vertex 0.1 0.05 -0.2
      vertex 0.1 0.25 -0.3
      vertex 0.1 0.25 -0.2
    endloop
  endfacet
  facet normal -1 0 0
    outer loop
      vertex 0.4 0.05 -0.3
      vertex 0.4 0.05 -0.2
      vertex 0.4 0.25 -0.2
    endloop
  endfacet
  facet normal -1 0 0
    outer loop
      vertex 0.4 0.05 -0.3
      vertex 0.4 0.25 -0.2
      vertex 0.4 0.25 -0.3
    endloop
  endfacet
endsolid gate-box
